<svg xmlns="http://www.w3.org/2000/svg" data-name="Layer 1" viewBox="0 0 1024 1024"><path d="M12 788.37l7.7-9c5 7.16 11.55 11 19.38 11C49.57 790.36 55 784 55 771.51v-52.17H21.43v-11.55h46.73v63.06c0 20.71-10.09 30.93-29.08 30.93C28.06 801.78 18 797 12 788.37zM158.29 730.36v70.36h-12.08V790.1c-5.18 7.3-13.94 11.42-23.89 11.42-18.19 0-30.27-10-30.27-30.67v-40.49h12.74v39c0 13.81 6.91 20.71 19 20.71 13.27 0 21.77-8.23 21.77-23.37v-36.34zM173 793.28l5.31-10.08c6 4.24 15.54 7.3 24.7 7.3 11.81 0 16.72-3.59 16.72-9.56 0-15.8-44.47-2.12-44.47-30.14 0-12.61 11.28-21.1 29.34-21.1 9.16 0 19.51 2.39 25.62 6.37l-5.44 10.09a36.71 36.71 0 00-20.31-5.58c-11.16 0-16.6 4.12-16.6 9.69 0 16.6 44.61 3.06 44.61 30.4 0 12.75-11.69 20.85-30.4 20.85-11.67 0-23.22-3.59-29.08-8.24zM287.32 796.6c-3.85 3.32-9.69 4.92-15.4 4.92-14.2 0-22.3-7.84-22.3-22v-38.67h-12v-10.49h12V715h12.74v15.4h20.18v10.49h-20.18V779c0 7.56 4 11.81 11 11.81a16 16 0 0010-3.32zM299.8 708.59a8.39 8.39 0 018.63-8.37c4.91 0 8.63 3.59 8.63 8.1a8.64 8.64 0 01-17.26.27zm2.25 21.77h12.75v70.36h-12.75zM405.2 760.23v40.49h-12.74v-39c0-13.81-6.9-20.58-19-20.58-13.54 0-22.3 8.1-22.3 23.37v36.24h-12.73v-70.39h12.21V741c5.18-7.17 14.2-11.28 25.36-11.28 17.12-.02 29.2 9.8 29.2 30.51zM478.35 719.34v32.39h46.59v11.42h-46.59v37.57h-13.28v-92.93h65.58v11.55zM538.08 765.54c0-21 15.53-35.84 36.64-35.84s36.51 14.86 36.51 35.84-15.4 36-36.51 36-36.64-15.03-36.64-36zm60.27 0c0-15-10.09-24.69-23.63-24.69S551 750.54 551 765.54s10.22 24.82 23.76 24.82 23.59-9.82 23.59-24.82zM666.05 729.7V742a22.94 22.94 0 00-2.92-.13c-13.67 0-22.17 8.36-22.17 23.76v35.05h-12.74v-70.32h12.21v11.81c4.51-8.23 13.28-12.47 25.62-12.47zM681.05 702.21h12.75v98.51h-12.75zM780.75 769.79h-57.08c1.59 12.34 11.54 20.57 25.48 20.57 8.23 0 15.14-2.78 20.32-8.49l7 8.23c-6.37 7.43-16.06 11.42-27.74 11.42-22.71 0-37.84-15-37.84-36s15-35.84 35.31-35.84S781 744.3 781 765.94c0 1.06-.12 2.65-.25 3.85zm-57.08-9.16h45.13c-1.32-11.82-10.22-20.18-22.57-20.18s-21.23 8.23-22.56 20.18zM864.78 760.23v40.49H852v-39c0-13.81-6.91-20.58-19-20.58-13.54 0-22.3 8.1-22.3 23.37v36.24H798v-70.39h12.22V741c5.17-7.17 14.2-11.28 25.35-11.28 17.13-.02 29.21 9.8 29.21 30.51zM939.92 790.23v10.49H881v-8.23l41.55-51.64h-40.78v-10.49h57.08v8.36l-41.55 51.51zM1012 758.24v42.48h-12.08v-9.29c-4.25 6.37-12.08 10.09-23.1 10.09-15.93 0-26-8.5-26-20.71 0-11.29 7.3-20.58 28.28-20.58h20.18v-2.52c0-10.76-6.24-17-18.86-17-8.36 0-16.86 2.92-22.3 7.57l-5.31-9.56c7.3-5.84 17.79-9 29.07-9 19.23-.02 30.12 9.28 30.12 28.52zm-12.74 21v-9.82h-19.65c-12.62 0-16.2 4.91-16.2 10.89 0 7 5.84 11.41 15.53 11.41s17.13-4.41 20.32-12.51zM519.57 384.89a72.72 72.72 0 0139.73-65l53.25-27.18-9 33.59-32.43 16.7a46.86 46.86 0 00-25.6 41.89v65.61l-25.95 37.41zM504.43 470.2a72.72 72.72 0 01-39.73 65l-53.25 27.18 9-33.58 32.45-16.69a46.87 46.87 0 0025.6-41.89v-65.64l25.95-37.4z"/><path d="M529.17 396.81l64.58-35.7-9.01 34.44-43.15 24.03-12.42-22.77z"/><path d="M512 640.37c-117.36 0-212.83-95.47-212.83-212.83S394.64 214.71 512 214.71s212.83 95.48 212.83 212.83S629.36 640.37 512 640.37zm0-408c-107.61 0-195.16 87.55-195.16 195.16S404.39 622.7 512 622.7s195.16-87.55 195.16-195.16S619.61 232.38 512 232.38z"/></svg>