<svg xmlns="http://www.w3.org/2000/svg" data-name="Layer 1" viewBox="0 0 1024 1024"><path d="M529.79 411.79a170.83 170.83 0 0193.33-152.67l125.09-63.85-21.08 78.9-76.24 39.21a110.11 110.11 0 00-60.15 98.41v154.14l-61 87.88zM494.21 612.21a170.83 170.83 0 01-93.33 152.67l-125.09 63.85 21.08-78.9 76.24-39.21a110.11 110.11 0 0060.15-98.41V458.07l60.95-87.88z"/><path d="M552.35 439.81l151.71-83.88-21.19 80.9-101.36 56.47-29.16-53.49z"/><path d="M512 1012c-275.7 0-500-224.3-500-500S236.3 12 512 12s500 224.3 500 500-224.3 500-500 500zm0-958.48C259.19 53.52 53.52 259.19 53.52 512S259.19 970.48 512 970.48 970.48 764.81 970.48 512 764.81 53.52 512 53.52z"/></svg>